<?xml version="1.0" encoding="UTF-8"?>
<svg width="128px" height="128px" viewBox="0 0 128 128" version="1.1" xmlns="http://www.w3.org/2000/svg" xmlns:xlink="http://www.w3.org/1999/xlink">
    <title>favicon</title>
    <g id="favicon" stroke="none" fill="none" fill-rule="evenodd" stroke-width="1">
        <g id="Group" transform="translate(29, 19)" fill="#002855">
            <path d="M22.2727273,0 C31.0590756,0 38.1818182,7.12274262 38.1818182,15.9090909 L38.1818182,23.8636364 C38.1818182,28.2568105 41.7431895,31.8181818 46.1363636,31.8181818 L54.0909091,31.8181818 C62.8772574,31.8181818 70,38.9409244 70,47.7272727 L70,81.1363636 C70,85.5272727 66.4363636,89.0909091 62.0454545,89.0909091 L7.95454545,89.0909091 C3.56363636,89.0909091 0,85.5272727 0,81.1363636 L0,7.95454545 C0,3.56363636 3.55939394,0 7.95454545,0 Z M45.1393939,42.6957576 L31.4109091,61.9139394 L24.5212121,55.0242424 C23.2675344,53.8560533 21.3138981,53.890523 20.1022105,55.1022105 C18.890523,56.3138981 18.8560533,58.2675344 20.0242424,59.5212121 L29.569697,69.0666667 C30.2307694,69.7272405 31.1488221,70.0637876 32.0802063,69.9869892 C33.0115905,69.9101909 33.8621178,69.4278135 34.4060606,68.6678788 L50.3151515,46.3951515 C51.0080711,45.4718514 51.146552,44.2456733 50.6770089,43.1910881 C50.2074658,42.1365029 49.203563,41.4189593 48.0537617,41.3161115 C46.9039604,41.2132637 45.7886474,41.7412469 45.1393939,42.6957576 Z" id="Combined-Shape" fill-rule="nonzero"></path>
            <path d="M37.5284848,2.92852381 C41.0349147,6.96727638 42.9619755,12.1359818 42.9545455,17.4821429 L42.9545455,25.4285714 C42.9545455,26.3058571 43.6672727,27.0178571 44.5454545,27.0178571 L52.5,27.0178571 C57.8516219,27.0104347 63.0256069,28.9355291 67.0684848,32.438381 C63.2683936,18.0004463 51.9811671,6.72473745 37.5284848,2.92852381 L37.5284848,2.92852381 Z" id="Path"></path>
        </g>
    </g>
</svg>