<?xml version="1.0" encoding="UTF-8"?>
<svg width="128px" height="128px" viewBox="0 0 128 128" version="1.1" xmlns="http://www.w3.org/2000/svg" xmlns:xlink="http://www.w3.org/1999/xlink">
    <title>favicon</title>
    <g id="favicon" stroke="none" fill="none" fill-rule="evenodd">
        <circle id="Oval" fill="#FFFFFF" cx="65" cy="63" r="53"></circle>
        <g id="Group" stroke-width="1" transform="translate(43, 35)" fill="#002855">
            <path d="M14,0 C19.5228475,0 24,4.4771525 24,10 L24,15 C24,17.7614237 26.2385763,20 29,20 L34,20 C39.5228475,20 44,24.4771525 44,30 L44,51 C44,53.76 41.76,56 39,56 L5,56 C2.24,56 0,53.76 0,51 L0,5 C0,2.24 2.23733333,0 5,0 Z M28.3733333,26.8373333 L19.744,38.9173333 L15.4133333,34.5866667 C14.6253073,33.8523764 13.3973074,33.874043 12.6356752,34.6356752 C11.874043,35.3973074 11.8523764,36.6253073 12.5866667,37.4133333 L18.5866667,43.4133333 C19.0021979,43.8285512 19.5792596,44.040095 20.1647011,43.9918218 C20.7501426,43.9435485 21.2847598,43.6403399 21.6266667,43.1626667 L31.6266667,29.1626667 C32.0622161,28.5823066 32.1492612,27.8115661 31.8541199,27.148684 C31.5589785,26.4858018 30.9279539,26.0347744 30.2052217,25.9701272 C29.4824894,25.90548 28.7814355,26.2373552 28.3733333,26.8373333 Z" id="Combined-Shape" fill-rule="nonzero"></path>
            <path d="M23.5893333,1.85956993 C25.793375,4.42411894 27.0046703,7.7061715 27,11.1009059 L27,16.1467722 C27,16.7038358 27.448,17.1559454 28,17.1559454 L33,17.1559454 C36.3638767,17.1512323 39.6160958,18.3736392 42.1573333,20.597899 C39.7687045,11.430021 32.6738765,4.27011025 23.5893333,1.85956993 L23.5893333,1.85956993 Z" id="Path"></path>
        </g>
    </g>
</svg>