<?xml version="1.0" encoding="UTF-8"?>
<svg width="55px" height="70px" viewBox="0 0 55 70" version="1.1" xmlns="http://www.w3.org/2000/svg" xmlns:xlink="http://www.w3.org/1999/xlink">
    <title>readable</title>
    <g id="main" stroke="none" stroke-width="1" fill="none" fill-rule="evenodd">
        <g id="favicon" transform="translate(-27, -19)">
            <g id="readable" transform="translate(27, 19)">
                <rect id="Rectangle" stroke="#979797" stroke-width="1.25" fill="#FFBF00" x="9.375" y="26.875" width="36.25" height="32.5"></rect>
                <path d="M17.5,0 C24.4035594,0 30,5.59644063 30,12.5 L30,18.75 C30,22.2017797 32.7982203,25 36.25,25 L42.5,25 C49.4035594,25 55,30.5964406 55,37.5 L55,63.75 C55,67.2 52.2,70 48.75,70 L6.25,70 C2.8,70 0,67.2 0,63.75 L0,6.25 C0,2.8 2.79666667,0 6.25,0 Z M35.4666667,33.5466667 L24.68,48.6466667 L19.2666667,43.2333333 C18.2816342,42.3154705 16.7466343,42.3425537 15.794594,43.294594 C14.8425537,44.2466343 14.8154705,45.7816342 15.7333333,46.7666667 L23.2333333,54.2666667 C23.7527474,54.785689 24.4740745,55.0501188 25.2058764,54.9897772 C25.9376782,54.9294357 26.6059497,54.5504249 27.0333333,53.9533333 L39.5333333,36.4533333 C40.0777701,35.7278832 40.1865765,34.7644576 39.8176498,33.935855 C39.4487231,33.1072523 38.6599424,32.543468 37.7565271,32.462659 C36.8531118,32.38185 35.9767944,32.796694 35.4666667,33.5466667 Z" id="Combined-Shape" fill="#002855" fill-rule="nonzero"></path>
                <path d="M29.4866667,2.32446241 C32.2417187,5.53014867 33.7558379,9.63271438 33.75,13.8761323 L33.75,20.1834652 C33.75,20.8797948 34.31,21.4449318 35,21.4449318 L41.25,21.4449318 C45.4548458,21.4390403 49.5201197,22.9670489 52.6966667,25.7473738 C49.7108807,14.2875263 40.8423456,5.33763781 29.4866667,2.32446241 L29.4866667,2.32446241 Z" id="Path" fill="#1D4776"></path>
            </g>
        </g>
    </g>
</svg>