<?xml version="1.0" encoding="UTF-8"?>
<svg width="327px" height="84px" viewBox="0 0 327 84" version="1.1" xmlns="http://www.w3.org/2000/svg" xmlns:xlink="http://www.w3.org/1999/xlink">
    <title>ucdavis-logo</title>
    <g id="Symbols" stroke="none" stroke-width="1" fill="none" fill-rule="evenodd">
        <g id="ucdavis-logo">
            <path d="M4.99359014,68.8774427 L6.41389504,68.8774427 C7.0465854,68.8774427 7.10455703,69.7971865 7.10455703,72.2933473 L7.10455703,77.6702343 C7.10455703,80.2216199 7.36343034,84 13.1336064,84 C16.8767745,84 19.2356201,81.7247384 19.2356201,77.9915422 L19.2356201,69.3594045 C19.2356201,68.9939168 19.5044885,68.8774427 19.785351,68.8774427 L20.6789137,68.8774427 L20.6789137,68.1464672 L16.2700714,68.1464672 L16.2700714,68.8774427 L17.5434482,68.8774427 C18.2720916,68.8774427 18.3220672,70.3082669 18.3220672,71.4177833 L18.3220672,77.2475136 C18.3220672,79.1552793 18.2481034,83.0069578 13.2595448,83.0069578 C11.4864125,83.0069578 9.15555327,82.0169278 9.15555327,78.4484019 L9.15555327,69.2549795 C9.15555327,69.042113 9.24351023,68.8774427 9.51637669,68.8774427 L10.602845,68.8774427 L10.602845,68.1464672 L4.99359014,68.1464672 L4.99359014,68.8774427 Z M25.8983593,68.1464672 L22.4010709,68.1464672 L22.4010709,68.8774427 L23.1397094,68.8774427 C24.2841493,68.8774427 24.4960456,69.7028023 24.4960456,71.6607724 L24.4960456,82.3281948 C24.4960456,82.687658 24.2321748,82.8181894 23.9463147,82.8181894 L23.050753,82.8181894 L23.050753,83.5361117 L27.4615943,83.5361117 L27.4615943,82.8181894 L26.189217,82.8181894 C25.4615731,82.8181894 25.4115976,81.3843528 25.4115976,80.268812 L25.4115976,70.5010517 L25.4615731,70.5010517 L35.919455,83.1535545 L36.197319,83.4828951 C36.3742324,83.6847166 36.4661874,83.758015 36.5381522,83.758015 C36.7150656,83.758015 36.7360554,83.5893283 36.7360554,83.3774659 L36.7360554,69.3594045 C36.7360554,68.9939168 36.9959282,68.8774427 37.2917834,68.8774427 L38.179349,68.8774427 L38.179349,68.1464672 L33.7695072,68.1464672 L33.7695072,68.8774427 L35.044883,68.8774427 C35.7705279,68.8774427 35.8085093,70.3082669 35.8085093,71.4177833 L35.8085093,80.1433011 L35.7705279,80.1433011 L25.8983593,68.1464672 Z M44.5532296,69.2549795 C44.5532296,69.042113 44.6431856,68.8774427 44.912054,68.8774427 L45.9985223,68.8774427 L45.9985223,68.1464672 L40.4002621,68.1464672 L40.4002621,68.8774427 L41.8255645,68.8774427 C42.4522578,68.8774427 42.5042324,69.7971865 42.5042324,72.2933473 L42.5042324,82.4265954 C42.5042324,82.6454864 42.4012828,82.8181894 42.1334139,82.8181894 L40.9989691,82.8181894 L40.9989691,83.5361117 L46.5942308,83.5361117 L46.5942308,82.8181894 L45.232897,82.8181894 C44.6022057,82.8181894 44.5532296,81.8894087 44.5532296,79.4002765 L44.5532296,69.2549795 Z M62.9632198,68.1464672 L58.3674689,68.1464672 L58.3674689,68.8774427 L59.7537905,68.8774427 C60.171586,68.8774427 60.3614931,68.9447165 60.3614931,69.2891184 C60.3614931,70.2008296 59.2450394,72.9992206 56.160549,80.5409196 C53.0700615,72.9992206 51.3738916,69.2399181 51.3738916,69.0270517 C51.3738916,68.8774427 51.4778407,68.8774427 51.6287669,68.8774427 L52.9291305,68.8774427 L52.9291305,68.1464672 L47.7106844,68.1464672 L47.7106844,68.8774427 L48.2914002,68.8774427 C49.0860113,68.8774427 49.2229443,68.9668064 50.0545373,70.94285 L55.1710333,83.3774659 C55.3379516,83.8072153 55.4089168,84 55.5808327,84 C55.8197158,84 55.9006762,83.6847166 56.1075749,83.1535545 L61.6168787,69.145534 C61.7158302,68.8774427 61.7508131,68.8774427 61.9057373,68.8774427 L62.9632198,68.8774427 L62.9632198,68.1464672 Z M66.0677004,82.4265954 C66.0677004,82.6454864 65.978744,82.8181894 65.7078765,82.8181894 L64.5804283,82.8181894 L64.5804283,83.5361117 L76.0678064,83.5361117 C76.354666,82.5701798 76.6645143,81.593203 76.6645143,81.3843528 C76.6645143,81.2638624 76.5765574,81.1222861 76.4766063,81.1222861 C76.3086885,81.1222861 76.2577134,81.2638624 76.1977428,81.3843528 C75.7809468,82.0550831 74.8334105,82.6695845 70.7384146,82.6695845 L69.1242046,82.6695845 C68.3895641,82.6695845 68.1286918,82.6695845 68.1286918,79.6653556 L68.1286918,75.5164672 L71.1662052,75.5164672 C73.9178586,75.5164672 74.1527436,75.5425735 74.1527436,76.193222 L74.1527436,77.0416757 L74.8114213,77.0416757 L74.8114213,72.9470081 L74.1527436,72.9470081 L74.1527436,73.8928582 C74.1527436,74.6178092 73.4101071,74.7242424 70.9283216,74.7242424 L68.1286918,74.7242424 L68.1286918,69.4598132 C68.1286918,69.214816 68.2496326,69.0270517 68.608457,69.0270517 L70.9792967,69.0270517 C74.7954291,69.0270517 75.20223,69.675692 75.2711962,69.9608528 C75.3191728,70.2871811 75.3601527,70.401647 75.5560568,70.401647 C75.7809468,70.3504386 75.8579091,70.2871811 76.0678064,68.1464672 L63.9777233,68.1464672 L63.9777233,68.8774427 L65.3980282,68.8774427 C66.0267205,68.8774427 66.0677004,69.7971865 66.0677004,72.2933473 L66.0677004,82.4265954 Z M82.531643,75.8347629 L82.531643,69.3594045 C82.531643,69.042113 82.8704771,69.0270517 83.0823734,69.0270517 L84.3237659,69.0270517 C86.2288336,69.0270517 87.9409956,70.4217288 87.9409956,72.6989986 C87.9409956,75.0806934 85.8160356,75.8347629 83.737053,75.8347629 L82.531643,75.8347629 Z M80.4806467,82.4265954 C80.4806467,82.6454864 80.3806956,82.8181894 80.1228218,82.8181894 L78.9873775,82.8181894 L78.9873775,83.5361117 L84.5826392,83.5361117 L84.5826392,82.8181894 L83.2093113,82.8181894 C82.5816185,82.8181894 82.531643,81.8894087 82.531643,79.4002765 L82.531643,76.5627261 L84.3237659,76.5627261 C88.7376058,83.5250668 89.0074737,83.5361117 89.5622022,83.5361117 L92.3308472,83.5361117 L92.3308472,82.8181894 L91.7261432,82.8181894 C91.0284846,82.8181894 90.2088857,82.0169278 86.2288336,76.216316 C88.3477965,75.8347629 89.9909924,74.4922983 89.9909924,72.312425 C89.9909924,69.2399181 87.2603287,68.1464672 85.1443643,68.1464672 L78.385672,68.1464672 L78.385672,68.8774427 L79.8049774,68.8774427 C80.4396668,68.8774427 80.4806467,69.7971865 80.4806467,72.2933473 L80.4806467,82.4265954 Z M98.4188678,68.5601511 C99.1854926,68.5601511 101.134539,68.8272383 101.306455,69.8724931 C101.334441,70.0411797 101.366425,70.2319563 101.593314,70.2319563 C101.787219,70.2319563 101.866181,70.0803391 101.866181,69.9096443 C101.866181,69.3353064 101.821203,68.7348623 101.787219,68.1464672 C101.016596,67.7849958 100.081054,67.6815748 99.0635522,67.6815748 C96.4838148,67.6815748 93.5892314,69.214816 93.5892314,72.1256648 C93.5892314,75.0806934 96.5377884,76.0255395 97.6222576,76.4171335 C100.009089,77.2856689 101.407405,78.1090204 101.407405,79.9756185 C101.407405,82.1605122 99.4243757,83.12544 97.4913217,83.12544 C96.3148974,83.12544 94.065998,82.6213883 93.7261644,81.2638624 C93.6851844,81.0429632 93.6182172,80.79897 93.369339,80.79897 C93.181431,80.79897 93.0774818,80.925485 93.0774818,81.0951757 C93.0774818,81.3140667 93.181431,81.8181185 93.4373057,83.3172207 C94.5537593,83.758015 96.0270383,84 97.2014635,84 C101.185514,84 103.017617,81.3642711 103.017617,79.2486594 C103.017617,76.6520899 101.555333,75.6570394 98.4618467,74.5204127 C96.9315956,73.9430626 95.1324761,73.3114917 95.1324761,71.3404686 C95.1324761,69.549177 96.8046577,68.5601511 98.4188678,68.5601511 L98.4188678,68.5601511 Z M108.817779,69.2549795 C108.817779,69.042113 108.902737,68.8774427 109.177602,68.8774427 L110.259073,68.8774427 L110.259073,68.1464672 L104.66681,68.1464672 L104.66681,68.8774427 L106.088114,68.8774427 C106.71081,68.8774427 106.763784,69.7971865 106.763784,72.2933473 L106.763784,82.4265954 C106.763784,82.6454864 106.663833,82.8181894 106.405959,82.8181894 L105.271514,82.8181894 L105.271514,83.5361117 L110.868775,83.5361117 L110.868775,82.8181894 L109.482453,82.8181894 C108.85476,82.8181894 108.817779,81.8894087 108.817779,79.4002765 L108.817779,69.2549795 Z M120.182217,69.0270517 L120.785921,69.0270517 C123.609539,69.0270517 124.981868,69.5270871 125.218752,70.2610748 C125.268727,70.401647 125.372677,70.6024645 125.559585,70.6024645 C125.708512,70.6024645 125.829453,70.5211334 125.829453,70.3504386 C125.829453,70.2008296 125.489619,69.145534 125.148786,68.1464672 L113.158654,68.1464672 C112.831814,69.145534 112.484984,70.2008296 112.484984,70.3504386 C112.484984,70.5211334 112.599928,70.6024645 112.748855,70.6024645 C112.94276,70.6024645 113.038713,70.401647 113.089688,70.2610748 C113.325572,69.5270871 114.704897,69.0270517 117.517521,69.0270517 L118.129221,69.0270517 L118.129221,82.4265954 C118.129221,82.6454864 118.040265,82.8181894 117.770397,82.8181894 L115.956285,82.8181894 L115.956285,83.5361117 L122.70998,83.5361117 L122.70998,82.8181894 L120.857886,82.8181894 C120.231193,82.8181894 120.182217,81.8894087 120.182217,79.4002765 L120.182217,69.0270517 Z M134.781072,76.8559196 L138.737136,69.6013895 C138.905054,69.2891184 139.025995,68.8774427 139.412805,68.8774427 L140.26239,68.8774427 L140.26239,68.1464672 L135.864542,68.1464672 L135.864542,68.8774427 L137.272853,68.8774427 C137.548718,68.8774427 137.751618,68.8975244 137.751618,69.1676239 C137.751618,69.6305081 137.408786,70.3333691 134.442238,75.940192 C132.627126,72.727113 130.560138,69.1937301 130.560138,68.9668064 C130.560138,68.8774427 130.779031,68.8774427 130.944949,68.8774427 L132.054406,68.8774427 L132.054406,68.1464672 L126.625064,68.1464672 L126.625064,68.8774427 L127.441664,68.8774427 C127.85946,68.8774427 127.978401,68.8975244 128.238274,69.2399181 C129.133836,70.3805612 129.954434,72.0523664 132.731075,76.9231934 L132.731075,82.4265954 C132.731075,82.6454864 132.627126,82.8181894 132.37325,82.8181894 L131.236807,82.8181894 L131.236807,83.5361117 L136.832068,83.5361117 L136.832068,82.8181894 L135.447746,82.8181894 C134.821052,82.8181894 134.781072,81.8894087 134.781072,79.4002765 L134.781072,76.8559196 Z M155.580893,84 C160.372548,84 163.614961,80.1864768 163.614961,75.6128596 C163.614961,70.8906375 160.856311,67.6815748 156.004685,67.6815748 C151.205034,67.6815748 147.969618,71.4930898 147.969618,76.0757438 C147.969618,80.79897 150.725269,84 155.580893,84 L155.580893,84 Z M155.477943,68.4878568 C158.329547,68.4878568 161.563965,70.8133228 161.563965,76.2956389 C161.563965,80.7035817 159.364041,83.2047629 156.103637,83.2047629 C153.258029,83.2047629 150.022613,80.8782929 150.022613,75.3879441 C150.022613,70.9820094 152.224535,68.4878568 155.477943,68.4878568 L155.477943,68.4878568 Z M165.328122,68.8774427 L166.751426,68.8774427 C167.382117,68.8774427 167.43709,69.7971865 167.43709,72.2933473 L167.43709,82.4265954 C167.43709,82.6454864 167.343136,82.8181894 167.07027,82.8181894 L165.937824,82.8181894 L165.937824,83.5361117 L171.538083,83.5361117 L171.538083,82.8181894 L170.160757,82.8181894 C169.534064,82.8181894 169.485088,81.8894087 169.485088,79.4002765 L169.485088,75.5164672 L172.531597,75.5164672 C175.281251,75.5164672 175.517136,75.5425735 175.517136,76.193222 L175.517136,77.0416757 L176.157822,77.0416757 L176.157822,72.9470081 L175.517136,72.9470081 L175.517136,73.8928582 C175.517136,74.6178092 174.769502,74.7242424 172.284718,74.7242424 L169.485088,74.7242424 L169.485088,69.4598132 C169.485088,69.214816 169.606029,69.0270517 169.960855,69.0270517 L172.329696,69.0270517 C176.147827,69.0270517 176.553629,69.675692 176.629591,69.9608528 C176.676568,70.2871811 176.717548,70.401647 176.920449,70.401647 C177.127348,70.3504386 177.213306,70.2871811 177.418205,68.1464672 L165.328122,68.1464672 L165.328122,68.8774427 Z M199.810247,68.5109508 C198.51588,68.0008745 197.129559,67.6815748 195.671272,67.6815748 C190.642733,67.6815748 186.325846,71.2249985 186.325846,76.4321948 C186.325846,81.4767289 189.684202,84 194.484853,84 C196.342944,84 198.415929,83.5672384 200.025142,82.7699932 C200.13009,81.2347438 200.179066,80.8782929 200.179066,80.6523733 C200.179066,80.5097929 200.13009,80.3370899 199.941183,80.3370899 C199.671315,80.3370899 199.642329,80.5840953 199.622339,80.775876 C199.454421,82.1364142 197.069588,83.12544 194.886656,83.12544 C191.902117,83.12544 188.522771,80.6774755 188.522771,76.1721362 C188.522771,71.9519577 191.087516,68.5601511 195.517348,68.5601511 C196.969637,68.5601511 198.974656,69.214816 199.093597,70.0803391 C199.146572,70.4458269 199.161564,70.5532642 199.372461,70.5532642 C199.622339,70.5532642 199.642329,70.4739413 199.810247,68.5109508 L199.810247,68.5109508 Z M210.942798,77.7756634 C211.937312,80.7035817 212.609983,82.3984809 212.609983,82.5701798 C212.609983,82.7438869 212.440066,82.8181894 212.259154,82.8181894 L210.968786,82.8181894 L210.968786,83.5361117 L216.362146,83.5361117 L216.362146,82.8181894 L215.649495,82.8181894 C215.022802,82.8181894 214.735942,82.4727834 214.184212,80.9445626 C212.998792,77.7224468 210.004258,69.6305081 210.004258,68.5842492 C210.004258,68.121365 210.424052,68.1464672 210.424052,67.8271675 C210.424052,67.6584808 210.322102,67.5841784 210.18417,67.5841784 C210.047237,67.5841784 209.367569,67.7598936 208.766863,67.902474 L202.659852,82.4265954 C202.519921,82.7438869 202.166094,82.8181894 201.80527,82.8181894 L201.31551,82.8181894 L201.31551,83.5361117 L206.197121,83.5361117 L206.197121,82.8181894 L204.66687,82.8181894 C204.314043,82.8181894 204.062166,82.687658 204.062166,82.1906349 C204.062166,81.5078556 204.93274,79.1372057 205.461481,77.7756634 L210.942798,77.7756634 Z M210.608962,76.8940749 L205.801315,76.8940749 L208.472008,70.4458269 L210.608962,76.8940749 Z M223.032882,68.1464672 L217.430623,68.1464672 L217.430623,68.8774427 L218.854926,68.8774427 C219.48162,68.8774427 219.528597,69.7971865 219.528597,72.2933473 L219.528597,82.4265954 C219.528597,82.6454864 219.438641,82.8181894 219.171771,82.8181894 L218.039325,82.8181894 L218.039325,83.5361117 L229.519707,83.5361117 C229.806567,82.5701798 230.119413,81.593203 230.119413,81.3843528 C230.119413,81.2638624 230.02346,81.1222861 229.929506,81.1222861 C229.756591,81.1222861 229.713612,81.2638624 229.648644,81.3843528 C229.232847,82.0550831 228.284312,82.6695845 224.194313,82.6695845 L222.582102,82.6695845 C221.844463,82.6695845 221.582591,82.6695845 221.582591,79.6653556 L221.582591,69.2549795 C221.582591,69.042113 221.678544,68.8774427 221.947413,68.8774427 L223.032882,68.8774427 L223.032882,68.1464672 Z M235.259898,69.2549795 C235.259898,69.042113 235.360848,68.8774427 235.62272,68.8774427 L236.723182,68.8774427 L236.723182,68.1464672 L231.114926,68.1464672 L231.114926,68.8774427 L232.540229,68.8774427 C233.172919,68.8774427 233.217897,69.7971865 233.217897,72.2933473 L233.217897,82.4265954 C233.217897,82.6454864 233.113948,82.8181894 232.848078,82.8181894 L231.725627,82.8181894 L231.725627,83.5361117 L237.320889,83.5361117 L237.320889,82.8181894 L235.944563,82.8181894 C235.319868,82.8181894 235.259898,81.8894087 235.259898,79.4002765 L235.259898,69.2549795 Z M239.676736,68.8774427 L241.104038,68.8774427 C241.730731,68.8774427 241.771711,69.7971865 241.771711,72.2933473 L241.771711,82.4265954 C241.771711,82.6454864 241.681755,82.8181894 241.418883,82.8181894 L240.284439,82.8181894 L240.284439,83.5361117 L245.886697,83.5361117 L245.886697,82.8181894 L244.506372,82.8181894 C243.876681,82.8181894 243.833702,81.8894087 243.833702,79.4002765 L243.833702,75.5164672 L246.869216,75.5164672 C249.625867,75.5164672 249.855754,75.5425735 249.855754,76.193222 L249.855754,77.0416757 L250.517431,77.0416757 L250.517431,72.9470081 L249.855754,72.9470081 L249.855754,73.8928582 C249.855754,74.6178092 249.122113,74.7242424 246.632332,74.7242424 L243.833702,74.7242424 L243.833702,69.4598132 C243.833702,69.214816 243.950644,69.0270517 244.313467,69.0270517 L246.681308,69.0270517 C250.482448,69.0270517 250.902242,69.675692 250.978205,69.9608528 C251.025182,70.2871811 251.068161,70.401647 251.265065,70.401647 C251.481959,70.3504386 251.547926,70.2871811 251.76482,68.1464672 L239.676736,68.1464672 L239.676736,68.8774427 Z M260.825386,84 C265.625037,84 268.864452,80.1864768 268.864452,75.6128596 C268.864452,70.8906375 266.1098,67.6815748 261.248179,67.6815748 C256.450527,67.6815748 253.219108,71.4930898 253.219108,76.0757438 C253.219108,80.79897 255.97376,84 260.825386,84 L260.825386,84 Z M260.727434,68.4878568 C263.574041,68.4878568 266.812456,70.8133228 266.812456,76.2956389 C266.812456,80.7035817 264.612532,83.2047629 261.352128,83.2047629 C258.501523,83.2047629 255.277101,80.8782929 255.277101,75.3879441 C255.277101,70.9820094 257.46503,68.4878568 260.727434,68.4878568 L260.727434,68.4878568 Z M274.622634,75.8347629 L274.622634,69.3594045 C274.622634,69.042113 274.95647,69.0270517 275.18136,69.0270517 L276.408759,69.0270517 C278.302832,69.0270517 280.020992,70.4217288 280.020992,72.6989986 C280.020992,75.0806934 277.893033,75.8347629 275.827044,75.8347629 L274.622634,75.8347629 Z M272.571637,82.4265954 C272.571637,82.6454864 272.473685,82.8181894 272.207815,82.8181894 L271.079368,82.8181894 L271.079368,83.5361117 L276.666633,83.5361117 L276.666633,82.8181894 L275.288308,82.8181894 C274.669611,82.8181894 274.622634,81.8894087 274.622634,79.4002765 L274.622634,76.5627261 L276.408759,76.5627261 C280.8206,83.5250668 281.08647,83.5361117 281.641199,83.5361117 L284.424836,83.5361117 L284.424836,82.8181894 L283.819133,82.8181894 C283.10948,82.8181894 282.294879,82.0169278 278.302832,76.216316 C280.440786,75.8347629 282.085981,74.4922983 282.085981,72.312425 C282.085981,69.2399181 279.341324,68.1464672 277.227359,68.1464672 L270.468666,68.1464672 L270.468666,68.8774427 L271.893969,68.8774427 C272.520662,68.8774427 272.571637,69.7971865 272.571637,72.2933473 L272.571637,82.4265954 Z M288.596795,68.1464672 L285.086512,68.1464672 L285.086512,68.8774427 L285.834147,68.8774427 C286.984584,68.8774427 287.191482,69.7028023 287.191482,71.6607724 L287.191482,82.3281948 C287.191482,82.687658 286.921614,82.8181894 286.64475,82.8181894 L285.748189,82.8181894 L285.748189,83.5361117 L290.162029,83.5361117 L290.162029,82.8181894 L288.883654,82.8181894 C288.159009,82.8181894 288.107034,81.3843528 288.107034,80.268812 L288.107034,70.5010517 L288.159009,70.5010517 L298.604897,83.1535545 L298.895754,83.4828951 C299.063672,83.6847166 299.161624,83.758015 299.23159,83.758015 C299.407504,83.758015 299.433491,83.5893283 299.433491,83.3774659 L299.433491,69.3594045 C299.433491,68.9939168 299.690365,68.8774427 299.981223,68.8774427 L300.879783,68.8774427 L300.879783,68.1464672 L296.465943,68.1464672 L296.465943,68.8774427 L297.744318,68.8774427 C298.460967,68.8774427 298.507944,70.3082669 298.507944,71.4177833 L298.507944,80.1433011 L298.460967,80.1433011 L288.596795,68.1464672 Z M307.251665,69.2549795 C307.251665,69.042113 307.345619,68.8774427 307.60849,68.8774427 L308.69196,68.8774427 L308.69196,68.1464672 L303.095699,68.1464672 L303.095699,68.8774427 L304.522001,68.8774427 C305.152692,68.8774427 305.195671,69.7971865 305.195671,72.2933473 L305.195671,82.4265954 C305.195671,82.6454864 305.101717,82.8181894 304.83085,82.8181894 L303.696405,82.8181894 L303.696405,83.5361117 L309.293665,83.5361117 L309.293665,82.8181894 L307.929333,82.8181894 C307.294644,82.8181894 307.251665,81.8894087 307.251665,79.4002765 L307.251665,69.2549795 Z M320.331264,77.7756634 C321.324777,80.7035817 321.982456,82.3984809 321.982456,82.5701798 C321.982456,82.7438869 321.816537,82.8181894 321.652617,82.8181894 L320.354252,82.8181894 L320.354252,83.5361117 L325.750611,83.5361117 L325.750611,82.8181894 L325.033962,82.8181894 C324.40527,82.8181894 324.11841,82.4727834 323.555686,80.9445626 C322.373264,77.7224468 319.391723,69.6305081 319.391723,68.5842492 C319.391723,68.121365 319.811518,68.1464672 319.811518,67.8271675 C319.811518,67.6584808 319.696574,67.5841784 319.575633,67.5841784 C319.438701,67.5841784 318.756035,67.7598936 318.154329,67.902474 L312.046318,82.4265954 C311.905387,82.7438869 311.550561,82.8181894 311.177743,82.8181894 L310.696979,82.8181894 L310.696979,83.5361117 L315.573592,83.5361117 L315.573592,82.8181894 L314.062332,82.8181894 C313.693512,82.8181894 313.445634,82.687658 313.445634,82.1906349 C313.445634,81.5078556 314.320205,79.1372057 314.837952,77.7756634 L320.331264,77.7756634 Z M319.985433,76.8940749 L315.182783,76.8940749 L317.861472,70.4458269 L319.985433,76.8940749 L319.985433,76.8940749 Z" id="Fill-10" fill="#002855"></path>
            <polygon id="Fill-9" fill="#DAAA00" points="4.53481467 61.8628895 326.226379 61.8628895 326.226379 60.1087491 4.53481467 60.1087491"></polygon>
            <path d="M286.616764,49.7586183 L291.851202,35.8469901 L292.764755,36.6362027 C295.978182,39.2729356 300.337049,41.5120501 304.454034,41.6004098 C308.134233,41.6867613 309.933352,40.7017517 309.443592,37.5750242 C309.078771,35.2375092 306.453056,34.8258334 304.814857,34.5015133 L301.21362,33.7785705 C294.209048,32.4652244 288.32093,28.1245555 288.32093,19.9050976 C288.32093,7.47550217 298.987709,0.505128818 309.715459,0.505128818 C315.356698,0.505128818 320.52217,1.94599395 325.363801,5.10886863 L320.819025,17.4350431 C318.326245,15.6317025 314.551093,13.0933701 309.771432,12.9176548 C308.200201,12.8574096 304.60596,13.6867856 305.758396,17.3547161 C306.254153,18.9150676 308.483062,19.5707366 309.851393,19.9050976 L313.912405,20.8891031 C321.506688,22.6643293 327,27.0060023 327,35.8791209 C327,48.373982 316.266253,54.5601633 305.600473,54.5601633 C299.382516,54.5601633 292.177042,52.7829289 286.616764,49.7586183" id="Fill-1" fill="#DAAA00"></path>
            <polygon id="Fill-2" fill="#DAAA00" points="264.797442 53.7759712 282.753654 53.7759712 282.753654 1.35759885 264.797442 1.35759885"></polygon>
            <polyline id="Fill-3" fill="#DAAA00" points="244.202521 1.35759885 262.919361 1.35759885 243.805715 53.7759712 228.622146 53.7759712 209.574468 1.35759885 228.223341 1.35759885 236.21643 32.9873498 244.202521 1.35759885"></polyline>
            <path d="M165.254159,53.7759712 L184.237868,53.7759712 L185.676164,47.1931755 L199.226532,47.1931755 L201.026651,53.7759712 L220.013359,53.7759712 L202.23606,1.35759885 L182.327803,1.35759885 L165.254159,53.7759712 Z M192.483832,16.4881889 L192.483832,16.4881889 C192.81567,18.7202747 196.083071,34.7605678 196.083071,34.7605678 L188.907583,34.7605678 L192.483832,16.4881889 L192.483832,16.4881889 Z" id="Fill-4" fill="#DAAA00"></path>
            <path d="M136.713127,38.724704 L137.941525,38.724704 C143.963578,38.724704 148.430392,35.0949288 148.430392,28.2560909 C148.430392,20.8891031 144.47033,16.7813823 137.856567,16.7813823 L136.713127,16.7813823 L136.713127,38.724704 Z M118.64397,1.35759885 L137.037968,1.35759885 C153.733797,1.35759885 166.493552,9.05794359 166.493552,28.3223606 C166.493552,43.8445447 156.090643,53.7759712 141.490788,53.7759712 L118.64397,53.7478567 L118.64397,1.35759885 L118.64397,1.35759885 Z" id="Fill-5" fill="#DAAA00"></path>
            <path d="M107.714319,3.00229369 L108.686843,11.6012965 C108.91773,13.645618 110.075163,18.5445595 108.646862,17.8868824 C107.746303,17.4822352 107.010663,15.2591861 106.274023,13.2901711 C105.900206,12.2890962 104.121077,7.55482505 103.655305,7.20741088 C101.408405,5.51451986 95.8011489,3.61177462 92.0080052,3.59570922 C80.5006369,3.55152938 72.8893619,12.0762297 72.8893619,27.2048116 C72.8893619,38.0509615 78.060831,51.0709602 91.2183917,51.0709602 C95.9320848,51.0709602 104.961666,49.5798908 107.420462,42.8434697 C108.52792,39.7930528 109.546422,37.0850296 110.283061,37.9033607 C110.825796,38.5068171 110.118142,40.9487572 109.790303,42.2610992 C108.239062,48.5095338 108.155103,50.4012341 107.663343,50.6432191 C101.719253,53.6394153 94.0969829,54.626433 87.423249,54.626433 C66.21163,54.626433 58.8812175,42.1958335 58.8812175,29.7692503 C58.8812175,8.19844495 72.071762,-0.728894352 92.5257518,0.0462609669 C97.6942224,0.240049797 102.86769,1.16381002 107.714319,3.00229369" id="Fill-7" fill="#DAAA00"></path>
            <path d="M45.0669782,3.95718061 L41.6736389,2.76733728 C40.529199,1.73513564 41.9195186,1.44897079 41.9195186,1.44897079 C41.9195186,1.44897079 46.8291158,2.36068196 59.064128,1.32446397 C59.064128,1.32446397 60.126608,1.53331411 59.388969,2.39984137 L55.3789315,4.12586726 C52.7642112,5.27253485 52.7642112,4.61485773 52.7642112,7.49257165 L52.7412224,34.2053075 C52.7412224,55.0973499 31.583577,54.626433 27.4595953,54.626433 C25.498555,54.626433 6.24797624,54.626433 6.24797624,37.8541604 L6.24797624,9.58006894 C6.24797624,4.64799261 6.77171992,4.78153621 5.14051823,4.2011738 L0.230920995,2.35064109 C0.230920995,2.35064109 -0.59667398,1.16983454 0.881602551,1.24514108 C4.89263955,1.44897079 10.7037956,2.31348987 24.205188,1.32446397 C24.205188,1.32446397 25.3896083,1.612637 24.6119889,2.47514791 L20.6869098,3.6288441 C17.5764321,5.02753757 17.9882306,3.95718061 17.9042716,7.16323105 L18.0002247,35.0447244 C18.0002247,41.8835624 21.5035102,50.3440011 32.368193,50.3440011 C47.3628546,50.3440011 47.5027861,37.3189819 47.5027861,34.4241985 L47.5287734,6.80075557 C47.6886951,4.2011738 47.3628546,4.94319425 45.0669782,3.95718061" id="Fill-8" fill="#DAAA00"></path>
        </g>
    </g>
</svg>